<svg xmlns="http://www.w3.org/2000/svg" xml:space="preserve" fill-rule="evenodd" stroke-linejoin="round" stroke-miterlimit="2" clip-rule="evenodd" viewBox="0 0 1688 332"><path fill="#003563" fill-rule="nonzero" d="M1344 127.8c0 24.4-6.1 42.5-18.3 54.3-12.2 11.8-25.7 17.7-40.5 17.7H1143c0 11.2 6.6 20.6 19.8 28.2 13.2 7.6 26.4 11.4 39.6 11.4 23.2 0 41.4-2.4 54.6-7.2l6.6-2.4c9.6-4.4 17.6-6.6 24-6.6 12.8 0 23.8 9 33 27 5.2 10.8 7.8 20 7.8 27.6 0 35.6-42.6 53.4-127.8 53.4-29.6 0-55.9-5.1-78.9-15.3-23-10.2-40.9-23.7-53.7-40.5-25.2-32.4-37.8-68.6-37.8-108.6 0-50.4 16.3-90.7 48.9-120.9C1111.7 15.7 1152.4.6 1201.2.6c55.6 0 96.4 19.6 122.4 58.8 13.6 20.8 20.4 43.6 20.4 68.4Zm343.8 0c0 24.4-6.1 42.5-18.3 54.3-12.2 11.8-25.7 17.7-40.5 17.7h-142.2c0 11.2 6.6 20.6 19.8 28.2 13.2 7.6 26.4 11.4 39.6 11.4 23.2 0 41.4-2.4 54.6-7.2l6.6-2.4c9.6-4.4 17.6-6.6 24-6.6 12.8 0 23.8 9 33 27 5.2 10.8 7.8 20 7.8 27.6 0 35.6-42.6 53.4-127.8 53.4-29.6 0-55.9-5.1-78.9-15.3-23-10.2-40.9-23.7-53.7-40.5-25.2-32.4-37.8-68.6-37.8-108.6 0-50.4 16.3-90.7 48.9-120.9C1455.5 15.7 1496.2.6 1545 .6c55.6 0 96.4 19.6 122.4 58.8 13.6 20.8 20.4 43.6 20.4 68.4ZM670.2 165.6c0-48 16.8-87.6 50.4-118.8C754.2 15.6 792.6 0 835.8 0s81.4 15.5 114.6 46.5c33.2 31 49.8 70.5 49.8 118.5 0 33.2-8.6 62.7-25.8 88.5-17.2 25.8-38.1 44.8-62.7 57-24.6 12.2-50.1 18.3-76.5 18.3s-52-6.5-76.8-19.5c-24.8-13-45.7-32.2-62.7-57.6s-25.5-54.1-25.5-86.1Zm-360 0c0-48 16.8-87.6 50.4-118.8C394.2 15.6 432.6 0 475.8 0s81.4 15.5 114.6 46.5c33.2 31 49.8 70.5 49.8 118.5 0 33.2-8.6 62.7-25.8 88.5-17.2 25.8-38.1 44.8-62.7 57-24.6 12.2-50.1 18.3-76.5 18.3s-52-6.5-76.8-19.5c-24.8-13-45.7-32.2-62.7-57.6s-25.5-54.1-25.5-86.1Zm-202.2 0c0 16.8 5.6 29.9 16.8 39.3 11.2 9.4 23.1 14.1 35.7 14.1 12.6 0 24.4-3.7 35.4-11.1 11-7.4 19.9-11.1 26.7-11.1 12 0 26.6 10.6 43.8 31.8 9.2 11.6 13.8 22 13.8 31.2 0 15.2-11 29.4-33 42.6-22.8 16-50.8 24-84 24-37.2 0-73-13.4-107.4-40.2-16.4-12.8-29.8-29.9-40.2-51.3C5.2 213.5 0 189.9 0 164.1c0-25.8 5.2-49.2 15.6-70.2C26 72.9 39.4 56 55.8 43.2 89 16.8 124.4 3.6 162 3.6c15.2 0 30 2.1 44.4 6.3 14.4 4.2 25 8.3 31.8 12.3l9.6 6c7.2 4.8 12.8 8.6 16.8 11.4 10.4 8 15.6 17.1 15.6 27.3s-4.2 21.7-12.6 34.5c-14.4 22-28.2 33-41.4 33-7.6 0-18.4-4.4-32.4-13.2-7.2-6.8-17.5-10.2-30.9-10.2-13.4 0-25.9 4.8-37.5 14.4-11.6 9.6-17.4 23-17.4 40.2Zm687.6 43.2c12.8 9.6 25.8 14.4 39 14.4s26.4-5 39.6-15c13.2-10 19.8-24.8 19.8-44.4 0-19.6-6.2-34.2-18.6-43.8-12.4-9.6-25.8-14.4-40.2-14.4-14.4 0-27.8 5-40.2 15-12.4 10-18.6 24.7-18.6 44.1 0 19.4 6.4 34.1 19.2 44.1Zm-360 0c12.8 9.6 25.8 14.4 39 14.4s26.4-5 39.6-15c13.2-10 19.8-24.8 19.8-44.4 0-19.6-6.2-34.2-18.6-43.8-12.4-9.6-25.8-14.4-40.2-14.4-14.4 0-27.8 5-40.2 15-12.4 10-18.6 24.7-18.6 44.1 0 19.4 6.4 34.1 19.2 44.1Zm781.8-63.6c15.2 0 22.8-6.4 22.8-19.2 0-9.2-3.5-16.6-10.5-22.2-7-5.6-17-8.4-30-8.4s-25.9 5.3-38.7 15.9c-12.8 10.6-19.2 21.9-19.2 33.9h75.6Zm343.8 0c15.2 0 22.8-6.4 22.8-19.2 0-9.2-3.5-16.6-10.5-22.2-7-5.6-17-8.4-30-8.4s-25.9 5.3-38.7 15.9c-12.8 10.6-19.2 21.9-19.2 33.9h75.6Z"/></svg>