<svg xmlns="http://www.w3.org/2000/svg" xml:space="preserve" fill-rule="evenodd" stroke-linejoin="round" stroke-miterlimit="2" clip-rule="evenodd" viewBox="0 0 160 160"><path fill="none" d="M0 0h160v160H0z"/><ellipse cx="39.175" cy="34.131" fill="#fffcf2" rx="10.508" ry="9.187" transform="matrix(7.61338 0 0 8.70806 -218.252 -217.219)"/><path fill="#7f6259" fill-rule="nonzero" d="M96.963 145.778s-19.923-51.19 4.428-85.225c0 0-13.22 8.126-21.399 26.266-8.178-18.14-21.398-26.266-21.398-26.266 24.35 34.035 4.427 85.225 4.427 85.225h33.942Z"/><path fill="#40ac3b" fill-rule="nonzero" d="M39.272 94.848a6.91 6.91 0 0 0 10.496 6.277 6.912 6.912 0 0 0-10.496-6.277"/><path fill="#208f20" fill-rule="nonzero" d="M95.931 84.051a5.295 5.295 0 0 0-2.063 9.14 5.3 5.3 0 0 0 3.79-3.948 5.298 5.298 0 0 0-1.727-5.192"/><path fill="#40ac3b" fill-rule="nonzero" d="M77.56 49.934a7.917 7.917 0 0 0-4.404 6.897 7.916 7.916 0 0 0 4.047 7.113 7.92 7.92 0 0 0 .357-14.01M118.468 88.718a5.296 5.296 0 0 0 2.548 9.018 5.296 5.296 0 0 0-2.548-9.018"/><path fill="#75cf07" fill-rule="nonzero" d="M127.53 75.01a6.347 6.347 0 0 0-2.876 10.856 6.347 6.347 0 0 0 2.877-10.856"/><path fill="#40ac3b" fill-rule="nonzero" d="M130.92 53.719a6.348 6.348 0 0 0-11.217-.59 6.348 6.348 0 0 0 11.216.59M75.745 25.646a6.35 6.35 0 0 0-9.872 5.36 6.348 6.348 0 0 0 9.872-5.36"/><path fill="#208f20" fill-rule="nonzero" d="M86.844 17.585a6.35 6.35 0 0 0-11.233.051 6.35 6.35 0 0 0 11.233-.05"/><path fill="#40ac3b" fill-rule="nonzero" d="M102.813 29.728a7.428 7.428 0 0 0-7.236 2.55 7.427 7.427 0 0 0-1.118 7.59 7.424 7.424 0 0 0 8.354-10.14M66.984 52.618a6.348 6.348 0 0 0 .854 11.2 6.347 6.347 0 0 0-.854-11.2"/><path fill="#75cf07" fill-rule="nonzero" d="M72.998 19.44a6.349 6.349 0 0 0-11.173 1.15 6.349 6.349 0 0 0 11.173-1.15"/><path fill="#40ac3b" fill-rule="nonzero" d="M33.59 47.867a7.859 7.859 0 0 0-3.655 7.254 7.859 7.859 0 0 0 4.713 6.615 7.862 7.862 0 0 0-1.058-13.87M54.119 62.064a5.29 5.29 0 0 0-.317 5.462 5.292 5.292 0 0 0 4.682 2.828 5.295 5.295 0 0 0-4.365-8.29M56.98 48.818a5.294 5.294 0 0 0 4.366 8.29 5.296 5.296 0 0 0-4.366-8.29M100.564 87.771a6.912 6.912 0 0 0 4.925 5.173 6.908 6.908 0 0 0 6.87-1.943 6.911 6.911 0 0 0-11.795-3.23M74.736 68.928a6.911 6.911 0 0 0 7.722 9.484 6.91 6.91 0 0 0-7.722-9.484M57.905 22.114a6.914 6.914 0 0 0-7.096.813 6.918 6.918 0 0 0-2.586 6.658 6.913 6.913 0 0 0 9.682-7.471M49.371 76.286a6.914 6.914 0 0 0 11.796 3.23 6.912 6.912 0 0 0-11.796-3.23"/><path fill="#208f20" fill-rule="nonzero" d="M43.69 71.542a6.913 6.913 0 0 0 5.982-10.667 6.917 6.917 0 0 0-6.21 3.529 6.914 6.914 0 0 0 .228 7.138"/><path fill="#40ac3b" fill-rule="nonzero" d="M41.104 58.033a9.467 9.467 0 0 0 9.692-1.337 9.466 9.466 0 0 0 3.337-9.198 9.467 9.467 0 0 0-9.692 1.337 9.47 9.47 0 0 0-3.337 9.198M46.105 92.85a6.91 6.91 0 0 0 8.918-8.37 6.915 6.915 0 0 0-8.918 8.37"/><path fill="#75cf07" fill-rule="nonzero" d="M108.31 107.81a8.258 8.258 0 0 0 6.93-4.985 8.26 8.26 0 0 0-1.179-8.455 8.262 8.262 0 0 0-6.931 4.985 8.266 8.266 0 0 0 1.18 8.455"/><path fill="#40ac3b" fill-rule="nonzero" d="M123.124 73.671a8.266 8.266 0 0 0 6.931-4.986 8.264 8.264 0 0 0-1.18-8.455 8.263 8.263 0 0 0-5.751 13.441"/><path fill="#75cf07" fill-rule="nonzero" d="M115.616 69.226a8.262 8.262 0 0 0-2.921-14.325 8.263 8.263 0 0 0 2.92 14.325"/><path fill="#40ac3b" fill-rule="nonzero" d="M102.599 24.202a8.26 8.26 0 0 0-4.639-7.166 8.261 8.261 0 0 0-8.503.76 8.264 8.264 0 0 0 13.142 6.406"/><path fill="#75cf07" fill-rule="nonzero" d="M112.643 41.402a9.78 9.78 0 0 0 3.387-9.523 9.782 9.782 0 0 0-6.845-7.438 9.783 9.783 0 0 0 3.458 16.961"/><path fill="#208f20" fill-rule="nonzero" d="M115.995 87.773a8.264 8.264 0 0 0-.176-14.62 8.267 8.267 0 0 0-4.322 7.364 8.258 8.258 0 0 0 4.498 7.256M63.156 96.31a8.154 8.154 0 0 0-.195-14.428 8.153 8.153 0 0 0-4.253 7.273 8.154 8.154 0 0 0 4.448 7.154"/><path fill="#40ac3b" fill-rule="nonzero" d="M33.655 88.706a9.703 9.703 0 0 0 13.033-11.174 9.701 9.701 0 0 0-9.887 1.656 9.7 9.7 0 0 0-3.146 9.518"/><path fill="#75cf07" fill-rule="nonzero" d="M38.002 63.432a9.702 9.702 0 0 0-6.751 15.785 9.704 9.704 0 0 0 6.751-15.785M66.016 114.208c1.67-3.913 1.179-8.596-1.686-12.132-2.865-3.535-7.343-4.989-11.518-4.166-1.671 3.914-1.18 8.596 1.685 12.133 2.865 3.536 7.343 4.987 11.52 4.165"/><path fill="#208f20" fill-rule="nonzero" d="M34.957 45.704c3.717 1.533 8.135 1.014 11.442-1.734 3.309-2.748 4.628-6.997 3.803-10.932-3.717-1.532-8.135-1.014-11.443 1.734-3.31 2.748-4.628 6.997-3.802 10.932M94.781 114.73c4.175-.827 7.764-3.874 9.069-8.233 1.305-4.36-.022-8.878-3.055-11.862-4.174.827-7.765 3.872-9.07 8.232-1.304 4.362.023 8.879 3.056 11.863"/><path fill="#75cf07" fill-rule="nonzero" d="M96.48 81.724c3.654 1.155 7.808.306 10.728-2.572a10.68 10.68 0 0 0 2.726-10.689 10.675 10.675 0 0 0-10.727 2.573 10.675 10.675 0 0 0-2.727 10.688M68.764 51.674c3.695-1.015 6.722-3.986 7.608-7.987.888-4.002-.598-7.973-3.518-10.455-3.695 1.015-6.722 3.985-7.609 7.987-.887 4.002.6 7.973 3.519 10.455"/><path fill="#208f20" fill-rule="nonzero" d="M112.935 51.05c3.102.98 6.628.258 9.104-2.184a9.061 9.061 0 0 0 2.316-9.072 9.064 9.064 0 0 0-11.42 11.255"/><path fill="#40ac3b" fill-rule="nonzero" d="M83.57 24.097a7.416 7.416 0 0 0 .296 7.65 7.406 7.406 0 0 0 6.906 3.307 7.408 7.408 0 0 0-.295-7.65 7.412 7.412 0 0 0-6.907-3.307M103.627 58.26a10.68 10.68 0 0 0 6.405-8.98 10.677 10.677 0 0 0-4.96-9.855c-3.513 1.526-6.092 4.894-6.404 8.98a10.68 10.68 0 0 0 4.959 9.855"/><path fill="#75cf07" fill-rule="nonzero" d="M82.121 67.184c3.653 1.154 7.808.306 10.727-2.572a10.677 10.677 0 0 0 2.727-10.69 10.679 10.679 0 0 0-10.727 2.572 10.678 10.678 0 0 0-2.727 10.69"/><path fill="#208f20" fill-rule="nonzero" d="M79.692 37.656a10.677 10.677 0 0 0 14.96 11.537c.65-3.777-.754-7.778-4-10.281-3.245-2.505-7.472-2.845-10.96-1.256"/><path fill="#40ac3b" fill-rule="nonzero" d="M54.56 45.083a9.244 9.244 0 0 0 8.29-4.734 9.243 9.243 0 0 0-.322-9.544 9.241 9.241 0 0 0-8.291 4.736 9.238 9.238 0 0 0 .322 9.542"/><path fill="#68443b" fill-rule="nonzero" d="M63.02 145.778h19.258c-.03-69.032-23.684-85.225-23.684-85.225 24.35 34.035 4.427 85.225 4.427 85.225"/></svg>