<svg width="24" height="24"  viewBox="0 0 512 512" xmlns="http://www.w3.org/2000/svg" fill-rule="evenodd" clip-rule="evenodd" stroke-linejoin="round" stroke-miterlimit="2">
  <path d="M409.56126 160.24167c-30.754125-22.80989-56.8772-33.434716-82.227043-33.434716-22.33436 0-45.245366 8.229234-71.341038 25.753177-26.131415-17.51934-49.043613-25.753177-71.35057-25.753177-25.382012 0-51.505087 10.624825-82.20798 33.443921-4.388 3.263158-6.961467 8.306326-6.961467 13.654408V367.9654c0 6.561986 3.862584 12.553264 9.954314 15.451676 2.4996 1.18629 5.198166 1.770804 7.87886 1.770804 3.863776 0 7.697765-1.20815 10.871708-3.56347 24.13102-17.9071 43.342668-26.253697 60.474096-26.262902h.023829c17.126662 0 36.33831 8.346598 60.450268 26.2583.111993.080543.228752.153032.34432.233575.195393.139225.390786.27845.590945.40847.16799.108159.339554.211714.51231.31527.181096.108159.358618.215166.539713.318722.204925.11276.409849.216317.614773.318722.129865.067886.256155.140375.390786.202509.022637.013807.046465.023012.073868.032217.549245.26004 1.112786.484411 1.679902.68692.107228.03567.219221.07249.32645.108159.57188.193304 1.14972.358993 1.735898.490164.065528.01726.13463.026464.204924.040271.55401.120816 1.111595.211715 1.675137.27845.0834.009205.172756.023013.256155.031067.586179.063284 1.177123.094351 1.768067.098954.051232 0 .107228.009205.15846.009205.09293 0 .181095-.009205.270452-.009205.297855-.004603.59571-.01726.893565-.03567.157267-.013807.315726-.021861.474185-.035669.312152-.027615.624304-.063284.94003-.108158.13463-.021862.275218-.03567.409849-.058682.390785-.062133.781571-.143827 1.172357-.233576.051231-.012656.107228-.017259.158459-.031066.437251-.108159.874502-.228974 1.308179-.368199.13463-.044874.264495-.09435.395551-.140375.29309-.102406.58618-.205961.874503-.323325.172756-.066736.334789-.143827.502779-.219768.163224-.067887.325258-.13002.483716-.211714.092931-.040272.177522-.089748.265687-.134623.16799-.080543.330023-.170291.498014-.256588.246624-.134622.493248-.273847.735106-.417675.148927-.089748.297855-.179497.442017-.269245.270452-.176045.534947-.355542.791103-.53964.08459-.063285.177521-.112762.26092-.174895 24.126255-17.9071 43.337903-26.253697 60.469331-26.262902h.022637c17.126663 0 36.33831 8.346598 60.456225 26.2583 5.384027 3.999555 12.654072 4.69683 18.750568 1.797268 6.096496-2.898412 9.954314-8.88969 9.954314-15.451676V173.905283c.004766-5.352685-2.573467-10.400455-6.966232-13.663613zM184.63427 320.910795c-17.108792.009205-34.546415 4.82685-53.484036 14.935048V182.557945c20.92491-14.500113 38.069443-21.300277 53.492375-21.300277 15.40506 0 32.555552 6.800164 53.525735 21.309482v153.270638c-18.93643-10.108196-36.38001-14.926993-53.48761-14.926993h-.046465zm196.225682 14.926993c-18.937621-10.108196-36.38001-14.926993-53.488801-14.926993h-.0417c-17.112365.009205-34.55118 4.82685-53.48761 14.935048V182.557945c20.923719-14.500113 38.069444-21.300277 53.492376-21.300277 15.40506 0 32.55436 6.800164 53.525735 21.309482v153.270638z" fill-rule="nonzero"/>
  <path d="M255.9996 0c141.290446 0 255.9996 114.709154 255.9996 255.9996 0 141.290446-114.709154 255.9996-255.9996 255.9996C114.709154 511.9992 0 397.290046 0 255.9996 0 114.709154 114.709154 0 255.9996 0zm0 39.999938c119.21048 0 215.999663 96.789182 215.999663 215.999662S375.21008 471.999262 255.9996 471.999262 39.999938 375.21008 39.999938 255.9996 136.78912 39.999938 255.9996 39.999938z"/>
</svg>
