<svg viewBox="0 0 22 22" xmlns="http://www.w3.org/2000/svg" fill-rule="evenodd" clip-rule="evenodd" stroke-linejoin="round" stroke-miterlimit="2">
  <path fill="none" d="M-.000306 0H21.99967v21.99996H-.000306z"/>
  <path d="M21.123334 9.593985v.561999c0 .465999-.378.843998-.843999.843998h-.281l-.917998 6.42599c-.119.830999-.830998 1.448998-1.670996 1.448998H4.587364c-.839998 0-1.551997-.618-1.670997-1.448998l-.917998-6.42599h-.281c-.465998 0-.843998-.377999-.843998-.843998v-.562c0-.465999.378-.843998.843999-.843998h2.366995l3.753993-5.161992c.366-.501999 1.068998-.612999 1.571997-.248.502.366.613 1.068999.248 1.571998L6.86636 8.749986h8.263985L12.33835 4.911992c-.365-.502999-.254-1.205998.248-1.571997.502999-.365 1.205997-.254 1.571997.248l3.753993 5.161991h2.366995c.466 0 .843999.378.843999.843999zm-10.70298 3.827994H8.576357c-.319 0-.577999.259-.577999.577999 0 .319.259.577999.577999.577999h1.843997v1.843997c0 .319.258999.577999.577998.577999.319 0 .578-.259.578-.578v-1.843996h1.843996c.319 0 .577999-.259.577999-.578 0-.318999-.259-.577998-.578-.577998h-1.843996v-1.843997c0-.319-.259-.578-.577999-.578-.318999 0-.577998.259-.577998.578v1.843997z" fill-rule="nonzero"/>
</svg>
