<svg width="24" height="24" viewBox="0 0 512 512" xmlns="http://www.w3.org/2000/svg" fill-rule="evenodd" clip-rule="evenodd" stroke-linejoin="round" stroke-miterlimit="2"><path d="M361.416 126.808H150.584c-.317 0-.633 0-.95.027-17.712.728-27.753 20.827-17.543 35.438 0 0 70.284 100.627 70.352 100.729v99.64c0 12.45 10.103 22.553 22.553 22.553h61.855c12.45 0 22.553-10.104 22.553-22.554v-99.447l70.503-100.921c10.437-14.933-.299-35.465-18.49-35.465zm-97.118 129.29v83.99h-16.75V255.9c0-4.614-1.41-9.12-4.06-12.912l-49.648-71.073h124.303l-49.784 71.271a22.547 22.547 0 0 0-4.06 12.912z" fill-rule="nonzero"/><path d="M256 0c141.29 0 256 114.71 256 256 0 141.29-114.71 256-256 256C114.71 512 0 397.29 0 256 0 114.71 114.71 0 256 0zm0 40c119.214 0 216 96.786 216 216s-96.786 216-216 216S40 375.214 40 256 136.786 40 256 40z"/></svg>