<svg viewBox="0 0 5000 625" xmlns="http://www.w3.org/2000/svg" fill-rule="evenodd" clip-rule="evenodd" stroke-linejoin="round" stroke-miterlimit="2"><path d="M-.014 171.473c190.92-63.678 454.55-125.946 794.96-148.464 240.67-15.924 519.599-11.988 838.529 25.344 0 0-25.71 241.86-55.77 243.852-1.6.102-3.23-.474-4.86-1.824-611.89-33.558-1221.87-15.072-1572.86-1.578v-117.33z" fill="#190c4e"/><path d="M31.046 161.339c188.08-60.048 441.57-117.012 763.9-138.33 240.67-15.924 519.599-11.988 838.529 25.344 0 0-3.9 36.768-10.46 81.738-300.41-50.958-568.11-68.964-802.84-66.408-328.23 3.576-591.78 47.394-789.13 97.656z" fill="#16bbee"/><path d="M2877.595 428.565c-491.42-109.677-922.34-297.681-1446.589-363.063C1083.386 22.153 528.226 13.51.027 264.202v360.802h4999.997V352.621c-143.3 36.71-430.49 100.927-793.92 136.339-442.75 43.135-909.749 33.054-1328.509-60.395z" fill="#190c4e" fill-rule="nonzero"/><path d="M3749.361 399.394c-438.874-.446-861.933-50.63-1257.607-128.996-386.573-76.56-758.715-167.703-1178.592-209.187C995.512 29.82 510.111 20.69 24.617 161 546.338 33.53 1037.42 61.281 1351.62 105.263c409.372 57.302 760.657 162.243 1129.41 253.212 170.819 42.14 352.009 80.478 534.996 112.11 221.726 38.335 449.112 59.402 681.415 59.612 10.289.005 20.609.425 30.897 1.033 151.45-1.422 302.817-8.264 451.529-19.742 375.427-28.982 672.097-81.538 820.127-111.582V286.863S4168.133 399.82 3749.361 399.394z" fill="#0e5ba9" fill-rule="nonzero"/><path d="M3827.037 213.091c-448.494 31.506-899.487 6.762-1333.062-51.188-423.643-56.611-837.973-130.424-1282.462-145.758-89.227-3.08-189.945-3.55-298.02.961 124.393.265 238.429 6.694 337.213 15.603 437.366 39.464 829.676 135.363 1235.655 214.673 415.516 81.188 856.918 130.351 1310.389 123.52 432.71-6.502 1203.274-146.297 1203.274-146.297V.003s-745.03 183.03-1172.987 213.088z" fill="#8cd7f7" fill-rule="nonzero"/><path d="M3781.06 266.11c-439.235 22.617-876.7-7.239-1294.733-67.767C2077.872 139.209 1679.775 64.18 1247.94 43.196c-86.679-4.211-184.767-6.164-290.38-3.585 121.165 2.117 231.765 9.832 327.323 19.622 423.101 43.362 798.1 138.634 1187.641 218.66 398.712 81.916 825.02 134.84 1267.263 134.84 677.466 0 1260.237-117.628 1260.237-117.628V85.54S4200.185 244.536 3781.061 266.11z" fill="#16bbee" fill-rule="nonzero"/></svg>