<svg xmlns="http://www.w3.org/2000/svg" fill="none" viewBox="0 0 32 32"><g clip-path="url(#a)"><path fill="currentColor" d="M16 32c8.837 0 16-7.164 16-16C32 7.162 24.838-.002 16-.002c-8.836 0-16 7.164-16 16 0 8.837 7.164 16 16 16Z"/><path fill="#FFF" d="M16.002 10.872A5.12 5.12 0 0 0 10.875 16a5.12 5.12 0 0 0 5.127 5.128A5.12 5.12 0 0 0 21.13 16a5.12 5.12 0 0 0-5.128-5.128Zm0 8.462A3.34 3.34 0 0 1 12.67 16a3.337 3.337 0 0 1 3.333-3.334A3.337 3.337 0 0 1 19.336 16a3.34 3.34 0 0 1-3.334 3.334Zm6.534-8.671c0 .665-.536 1.195-1.196 1.195a1.196 1.196 0 1 1 1.196-1.196Zm3.396 1.213c-.076-1.602-.442-3.02-1.615-4.19-1.17-1.17-2.589-1.535-4.191-1.616-1.651-.093-6.6-.093-8.252 0-1.598.076-3.017.442-4.19 1.611-1.174 1.17-1.536 2.589-1.616 4.19-.094 1.652-.094 6.601 0 8.253.076 1.602.442 3.021 1.616 4.19 1.173 1.17 2.588 1.535 4.19 1.616 1.651.093 6.6.093 8.252 0 1.602-.076 3.021-.442 4.19-1.616 1.17-1.169 1.536-2.588 1.616-4.19.094-1.652.094-6.596 0-8.248Zm-2.133 10.02a3.375 3.375 0 0 1-1.901 1.9c-1.317.523-4.44.402-5.896.402-1.455 0-4.583.116-5.895-.401a3.375 3.375 0 0 1-1.901-1.902c-.522-1.316-.402-4.44-.402-5.895 0-1.455-.116-4.583.402-5.895a3.375 3.375 0 0 1 1.9-1.901c1.318-.523 4.441-.402 5.896-.402s4.584-.116 5.896.402a3.375 3.375 0 0 1 1.9 1.9c.523 1.317.402 4.441.402 5.896s.12 4.583-.401 5.895Z"/></g><defs><clipPath id="a"><path fill="#fff" d="M0 0h32v32H0z"/></clipPath></defs></svg>