<svg width="100%" height="100%" viewBox="0 0 1793 430" version="1.1" xmlns="http://www.w3.org/2000/svg" xmlns:xlink="http://www.w3.org/1999/xlink" xml:space="preserve" xmlns:serif="http://www.serif.com/" style="fill-rule:evenodd;clip-rule:evenodd;stroke-linejoin:round;stroke-miterlimit:2;">
    <g transform="matrix(1,0,0,1,-2384,-169)">
        <g transform="matrix(1,0,0,1,-0.333333,0)">
            <g transform="matrix(1.1566,0,0,1.1566,2202.89,71.6529)">
                <g transform="matrix(308.333,0,0,308.333,637.922,387.927)">
                    <path d="M0.229,-0.311C0.229,-0.373 0.265,-0.41 0.32,-0.41C0.375,-0.41 0.408,-0.374 0.408,-0.314L0.408,0L0.581,0L0.581,-0.348C0.582,-0.471 0.507,-0.553 0.392,-0.553C0.311,-0.553 0.25,-0.512 0.226,-0.445L0.22,-0.445L0.22,-0.545L0.055,-0.545L0.055,0L0.229,0L0.229,-0.311Z" style="fill:rgb(0,2,52);fill-rule:nonzero;"/>
                </g>
                <g transform="matrix(308.333,0,0,308.333,813.074,387.927)">
                    <path d="M0.209,0.009C0.285,0.009 0.337,-0.02 0.367,-0.076L0.371,-0.076L0.371,0L0.535,0L0.535,-0.371C0.535,-0.486 0.432,-0.553 0.293,-0.553C0.147,-0.553 0.064,-0.479 0.05,-0.379L0.21,-0.374C0.217,-0.408 0.246,-0.43 0.292,-0.43C0.335,-0.43 0.362,-0.409 0.362,-0.373L0.362,-0.371C0.362,-0.337 0.325,-0.33 0.232,-0.322C0.122,-0.313 0.029,-0.272 0.029,-0.151C0.029,-0.043 0.104,0.009 0.209,0.009ZM0.262,-0.104C0.222,-0.104 0.194,-0.124 0.194,-0.16C0.194,-0.195 0.222,-0.216 0.271,-0.224C0.303,-0.228 0.343,-0.235 0.363,-0.246L0.363,-0.194C0.363,-0.141 0.318,-0.104 0.262,-0.104Z" style="fill:rgb(0,2,52);fill-rule:nonzero;"/>
                </g>
                <g transform="matrix(308.333,0,0,308.333,965.922,387.927)">
                    <path d="M0.407,-0.235C0.407,-0.172 0.366,-0.136 0.315,-0.136C0.262,-0.136 0.229,-0.173 0.229,-0.232L0.229,-0.545L0.055,-0.545L0.055,-0.198C0.055,-0.075 0.13,0.007 0.243,0.007C0.324,0.007 0.385,-0.035 0.409,-0.102L0.415,-0.102L0.415,0L0.58,0L0.58,-0.545L0.407,-0.545L0.407,-0.235Z" style="fill:rgb(0,2,52);fill-rule:nonzero;"/>
                </g>
                <g transform="matrix(308.333,0,0,308.333,1144.09,387.927)">
                    <path d="M0.363,-0.545L0.265,-0.545L0.265,-0.676L0.091,-0.676L0.091,-0.545L0.019,-0.545L0.019,-0.418L0.091,-0.418L0.091,-0.152C0.09,-0.042 0.162,0.013 0.284,0.008C0.326,0.006 0.356,-0.003 0.373,-0.008L0.347,-0.133C0.339,-0.131 0.322,-0.128 0.309,-0.128C0.281,-0.128 0.265,-0.139 0.265,-0.172L0.265,-0.418L0.363,-0.418L0.363,-0.545Z" style="fill:rgb(0,2,52);fill-rule:nonzero;"/>
                </g>
                <g transform="matrix(308.333,0,0,308.333,1247.68,387.927)">
                    <path d="M0.055,0L0.229,0L0.229,-0.545L0.055,-0.545L0.055,0ZM0.142,-0.609C0.191,-0.609 0.231,-0.646 0.231,-0.692C0.231,-0.738 0.191,-0.775 0.142,-0.775C0.093,-0.775 0.053,-0.738 0.053,-0.692C0.053,-0.646 0.093,-0.609 0.142,-0.609Z" style="fill:rgb(0,2,52);fill-rule:nonzero;"/>
                </g>
                <g transform="matrix(308.333,0,0,308.333,1313.48,387.927)">
                    <path d="M0.31,0.01C0.463,0.01 0.558,-0.079 0.563,-0.214L0.401,-0.214C0.394,-0.156 0.359,-0.124 0.312,-0.124C0.251,-0.124 0.211,-0.176 0.211,-0.273C0.211,-0.369 0.251,-0.42 0.312,-0.42C0.362,-0.42 0.394,-0.387 0.401,-0.331L0.563,-0.331C0.559,-0.465 0.461,-0.553 0.309,-0.553C0.138,-0.553 0.034,-0.438 0.034,-0.271C0.034,-0.104 0.137,0.01 0.31,0.01Z" style="fill:rgb(0,2,52);fill-rule:nonzero;"/>
                </g>
                <g transform="matrix(308.333,0,0,308.333,1482.91,387.927)">
                    <path d="M0.209,0.009C0.285,0.009 0.337,-0.02 0.367,-0.076L0.371,-0.076L0.371,0L0.535,0L0.535,-0.371C0.535,-0.486 0.432,-0.553 0.293,-0.553C0.147,-0.553 0.064,-0.479 0.05,-0.379L0.21,-0.374C0.217,-0.408 0.246,-0.43 0.292,-0.43C0.335,-0.43 0.362,-0.409 0.362,-0.373L0.362,-0.371C0.362,-0.337 0.325,-0.33 0.232,-0.322C0.122,-0.313 0.029,-0.272 0.029,-0.151C0.029,-0.043 0.104,0.009 0.209,0.009ZM0.262,-0.104C0.222,-0.104 0.194,-0.124 0.194,-0.16C0.194,-0.195 0.222,-0.216 0.271,-0.224C0.303,-0.228 0.343,-0.235 0.363,-0.246L0.363,-0.194C0.363,-0.141 0.318,-0.104 0.262,-0.104Z" style="fill:rgb(0,2,52);fill-rule:nonzero;"/>
                </g>
                <g transform="matrix(308.333,0,0,308.333,1635.82,387.927)">
                    <rect x="0.055" y="-0.727" width="0.174" height="0.727" style="fill:rgb(0,2,52);fill-rule:nonzero;"/>
                </g>
            </g>
        </g>
        <g transform="matrix(1,0,0,1,-0.333333,0)">
            <g transform="matrix(1.07399,0,0,1.075,2362.85,108.8)">
                <g transform="matrix(1.24368,0,0,1.38186,114.299,-82.4607)">
                    <path d="M307.5,140.829C274.322,181.197 253.287,241.106 253.287,307.934C253.287,331.12 255.819,353.473 260.512,374.466C252.961,356.622 241.918,339.909 227.384,325.374C190.827,288.818 140.493,274.351 93.032,281.973C129.745,199.486 211.823,141.573 307.5,140L307.5,140.829Z" style="fill:rgb(13,73,114);"/>
                </g>
                <g transform="matrix(1.38186,0,0,1.5354,1.44287,-133.956)">
                    <path d="M307.5,140.829C274.322,181.197 253.287,241.106 253.287,307.934C253.287,331.12 255.819,353.473 260.512,374.466C252.961,356.622 241.918,339.909 227.384,325.374C190.827,288.818 140.493,274.351 93.032,281.973C129.745,199.486 211.823,141.573 307.5,140L307.5,140.829Z" style="fill:rgb(11,121,183);"/>
                </g>
                <g transform="matrix(1.5354,0,0,1.706,-122.841,-182.84)">
                    <path d="M307.5,140.829C274.322,181.197 253.287,241.106 253.287,307.934C253.287,331.12 255.819,353.473 260.512,374.466C252.961,356.622 241.918,339.909 227.384,325.374C190.827,288.818 140.493,274.351 93.032,281.973C129.745,199.486 211.823,141.573 307.5,140L307.5,140.829Z" style="fill:rgb(38,178,227);"/>
                </g>
            </g>
        </g>
    </g>
</svg>
