<svg viewBox="0 0 512 512" xmlns="http://www.w3.org/2000/svg" fill-rule="evenodd" clip-rule="evenodd" stroke-linejoin="round" stroke-miterlimit="2"><path d="M512 101.356c-44.315 59.967-72.412 148.962-72.412 248.235 0 34.442 3.382 67.648 9.65 98.833-10.085-26.507-24.835-51.335-44.249-72.926-48.829-54.304-116.06-75.795-179.453-64.473C274.573 188.491 384.205 102.461 512 100.125v1.231z" fill="#0d4972"/><path d="M436.428 69.243c-49.24 66.63-80.457 165.513-80.457 275.816 0 38.27 3.757 75.165 10.722 109.815-11.206-29.452-27.595-57.038-49.165-81.029-54.255-60.338-128.955-84.216-199.393-71.636C172.621 166.06 294.434 70.471 436.428 67.875v1.368z" fill="#0b79b7"/><path d="M353.656 42.52c-54.711 74.033-89.398 183.903-89.398 306.463 0 42.522 4.175 83.516 11.914 122.016-12.452-32.725-30.661-63.376-54.628-90.032C161.26 313.925 78.26 287.393-.003 301.37 60.537 150.094 195.884 43.885 353.656 41v1.52z" fill="#26b2e3"/><g><path fill="none" d="M0 0h511.999v512h-512z"/></g></svg>