<svg xmlns="http://www.w3.org/2000/svg" xmlns:xlink="http://www.w3.org/1999/xlink" fill="none" viewBox="0 0 140 46"><path fill="#703412" d="M37.596 33.887c5.937 0 10.935-4.66 10.935-10.183 0-5.524-4.998-10.146-10.935-10.146-5.975 0-10.972 4.622-10.972 10.146 0 5.523 4.997 10.183 10.972 10.183Zm0-6.012c-2.292 0-4.209-1.917-4.209-4.171 0-2.255 1.917-4.134 4.209-4.134 2.255 0 4.17 1.88 4.17 4.134 0 2.254-1.916 4.17-4.17 4.17ZM61.494 33.887c5.937 0 10.934-4.66 10.934-10.183 0-5.524-4.997-10.146-10.934-10.146-5.975 0-10.972 4.622-10.972 10.146 0 5.523 4.997 10.183 10.972 10.183Zm0-6.012c-2.292 0-4.209-1.917-4.209-4.171 0-2.255 1.917-4.134 4.209-4.134 2.255 0 4.17 1.88 4.17 4.134 0 2.254-1.916 4.17-4.17 4.17ZM84.679 28.476c-1.841 0-3.27-1.203-3.833-3.044H94.6c0-7.477-3.682-11.874-9.92-11.874-6.012 0-10.258 4.171-10.258 10.108 0 5.975 4.359 10.22 10.559 10.22 2.968 0 6.275-1.24 8.003-3.005L89 26.86c-1.277 1.014-2.856 1.615-4.321 1.615Zm0-9.507c1.578 0 2.818 1.052 3.344 2.668H80.96c.639-1.616 1.992-2.668 3.72-2.668ZM106.848 28.476c-1.841 0-3.269-1.203-3.833-3.044h13.753c0-7.477-3.683-11.874-9.92-11.874-6.012 0-10.258 4.171-10.258 10.108 0 5.975 4.358 10.22 10.558 10.22 2.969 0 6.276-1.24 8.004-3.005l-3.983-4.02c-1.278 1.014-2.856 1.615-4.321 1.615Zm0-9.507c1.578 0 2.818 1.052 3.344 2.668h-7.064c.639-1.616 1.991-2.668 3.72-2.668ZM14.615 36.782c4.134 0 7.891-1.766 10.484-4.584l-5.336-4.66c-1.24 1.578-3.08 2.63-5.148 2.63-3.532 0-6.538-3.08-6.538-6.763 0-3.645 3.006-6.726 6.538-6.726 2.03 0 3.908 1.052 5.11 2.63l5.374-4.697a14.345 14.345 0 0 0-10.484-4.547c-7.628 0-14.053 6.088-14.053 13.34s6.425 13.377 14.053 13.377Z"/><path fill="#7EBA3F" fill-rule="evenodd" d="M118.566 32.103c10.901-6.422 16.388-18.353 10.12-25.953.975 5.667-1.673 18.627-10.12 25.953Z" clip-rule="evenodd"/><path fill="#649328" fill-rule="evenodd" d="M112.413 38.251c13.638.595 25.613-6.977 24.407-17.536-2.447 5.7-12.459 15.87-24.407 17.536Z" clip-rule="evenodd"/><path fill="#BFD827" fill-rule="evenodd" d="M121.947 20.877C126.748 10.062 124.899.07 116.6.385c3.491 2.296 7.914 10.883 5.347 20.492Z" clip-rule="evenodd"/><path fill="url(#a)" d="M0 0h.017v.017H0z"/><defs><pattern id="a" width="1" height="1" patternContentUnits="objectBoundingBox"><use xlink:href="#b" transform="scale(.0005 .0021)"/></pattern></defs></svg>