<svg width="36" height="36" viewBox="0 0 36 36" version="1.1" xmlns="http://www.w3.org/2000/svg" xmlns:xlink="http://www.w3.org/1999/xlink" xml:space="preserve" xmlns:serif="http://www.serif.com/" style="fill-rule:evenodd;clip-rule:evenodd;stroke-linejoin:round;stroke-miterlimit:2;">
    <g transform="matrix(1,0,0,1,-86,0)">
        <clipPath id="_clip1">
            <rect id="Artboard21" serif:id="Artboard2" x="86" y="0" width="36" height="36"/>
        </clipPath>
        <g clip-path="url(#_clip1)">
            <path d="M122,18C122,8.066 113.934,0 104,0C94.066,0 86,8.066 86,18C86,27.934 94.066,36 104,36C113.934,36 122,27.934 122,18ZM113.962,25.75L113.962,25.414L112.403,23.883C112.266,23.778 112.197,23.605 112.226,23.435L112.226,12.187C112.197,12.016 112.266,11.844 112.403,11.739L114,10.208L114,9.872L108.472,9.872L104.532,19.701L100.051,9.872L94.252,9.872L94.252,10.208L96.119,12.458C96.302,12.623 96.397,12.865 96.372,13.111L96.372,21.951C96.426,22.27 96.326,22.595 96.101,22.828L94,25.376L94,25.713L99.957,25.713L99.957,25.376L97.856,22.828C97.63,22.596 97.523,22.272 97.567,21.951L97.567,14.306L102.796,25.713L103.402,25.713L107.893,14.306C107.893,17.337 107.893,20.367 107.893,23.398C107.893,23.466 107.896,23.536 107.885,23.604C107.869,23.703 107.805,23.778 107.735,23.845C106.627,24.922 106.119,24.663 106.119,25.75L113.962,25.75Z" fill="rgb(33,18,94)"/>
        </g>
    </g>
</svg>
