<svg width="50" height="50" viewBox="0 0 512 512" xmlns="http://www.w3.org/2000/svg" fill-rule="evenodd" clip-rule="evenodd" stroke-linejoin="round" stroke-miterlimit="2"><path d="M319.66 319.592c24.794 28.293 53.978 70.576 53.978 112.863 0 73.522-117.637 102.932-191.16 58.82-39.44-23.667-44.113-73.524 0-102.934 18.088-12.06 35.842-27.26 47.231-46.249A89.885 89.885 0 0 0 256 346c24.852 0 47.364-10.094 63.661-26.407zm-127.254.068c-28.3 24.8-70.579 53.976-112.86 53.976-73.524 0-102.933-117.637-58.82-191.16 23.666-39.44 73.523-44.112 102.931 0 12.06 18.09 27.261 35.844 46.25 47.233A89.847 89.847 0 0 0 166 256c0 24.851 10.094 47.363 26.407 63.661zm127.188-127.32c28.301-24.799 70.577-53.976 112.86-53.976 73.522 0 102.932 117.635 58.822 191.16-23.666 39.44-73.525 44.112-102.933 0-12.059-18.089-27.26-35.844-46.25-47.234a89.853 89.853 0 0 0 3.906-26.29c0-24.852-10.094-47.364-26.405-63.66zm-127.255.066c-24.799-28.302-53.976-70.579-53.976-112.86 0-73.524 117.636-102.933 191.158-58.82 39.44 23.666 44.113 73.523 0 102.933-18.089 12.06-35.844 27.261-47.232 46.247A89.875 89.875 0 0 0 256 166c-24.85 0-47.363 10.094-63.66 26.407z" fill="#003" fill-rule="nonzero"/><circle cx="266" cy="273" r="90" fill="#26b2e3" transform="matrix(.83333 0 0 .83333 34.333 28.5)"/><path d="M256 181c41.393 0 75 33.606 75 75s-33.607 75-75 75V181z" fill="#0b79b7"/></svg>