<svg width="60" height="29" viewBox="229 0 60 29" xmlns="http://www.w3.org/2000/svg">
  <path fill="currentColor" fill-rule="evenodd" d="M244.37 11.6c.03 3.3 3 4.4 3.04 4.4 0 .1-.4 1.58-1.5 3.12-.9 1.33-1.9 2.65-3.4 2.68-1.5.03-2-.87-3.7-.87s-2.27.84-3.7.9c-1.5.05-2.62-1.44-3.57-2.77-1.96-2.7-3.45-7.65-1.45-11 1-1.65 2.76-2.7 4.68-2.73 1.47-.03 2.85.95 3.74.95.9 0 2.57-1.17 4.33-1 .75.03 2.8.3 4.15 2.16-.1.07-2.44 1.4-2.42 4.16m-2.83-8.12c.8-.92 1.3-2.2 1.16-3.48-1.15.04-2.5.73-3.35 1.65-.72.82-1.36 2.13-1.2 3.38 1.28.1 2.58-.62 3.37-1.55zM253 1.9c.6-.1 1.22-.12 1.93-.2.7-.1 1.46-.12 2.3-.12 1.2 0 2.26.14 3.14.43.88.3 1.6.7 2.16 1.2.5.5.87 1.1 1.15 1.7.27.7.4 1.4.4 2.3 0 1-.18 1.9-.56 2.7-.4.77-.9 1.4-1.53 1.9-.7.56-1.4.9-2.3 1.2-.9.27-1.9.4-2.9.4s-1.8-.07-2.4-.2v8.47h-1.5V1.97zm1.42 9.9c.35.1.7.2 1.15.2.44.1.9.1 1.38.1 1.8 0 3.2-.4 4.2-1.2s1.5-2.04 1.5-3.63c0-.76-.13-1.43-.4-2-.25-.57-.63-1.03-1.1-1.4-.5-.36-1.07-.63-1.73-.82-.68-.2-1.4-.27-2.2-.27-.67 0-1.2.02-1.7.07-.47.04-.84.1-1.13.16v8.9zm21 6.4c0 .6 0 1.16.02 1.7 0 .6.08 1.15.18 1.68h-1.33l-.2-2h-.1c-.2.27-.4.55-.7.82-.3.27-.6.52-1 .74-.4.23-.8.4-1.3.55-.5.1-1 .2-1.6.2-.7 0-1.3-.1-1.88-.4-.5-.2-.96-.5-1.3-.9-.35-.38-.6-.8-.8-1.27-.15-.47-.23-.94-.23-1.4 0-1.68.72-2.97 2.16-3.87 1.44-.9 3.62-1.33 6.52-1.3v-.37c0-.38-.06-.8-.1-1.3-.1-.47-.26-.93-.5-1.36-.25-.4-.6-.8-1.1-1.1-.48-.3-1.13-.4-1.96-.4-.6 0-1.2.1-1.85.3-.6.17-1.16.43-1.67.77l-.45-1.03c.64-.4 1.3-.72 2-.9.7-.2 1.4-.3 2.14-.3 1 0 1.83.16 2.47.5.62.32 1.12.76 1.5 1.3.35.52.6 1.1.73 1.8.1.63.2 1.3.2 1.93v5.58zM274 14c-.78 0-1.58 0-2.4.1-.85.08-1.6.25-2.33.5-.7.27-1.3.66-1.74 1.17-.46.5-.7 1.2-.7 2.03 0 1 .3 1.73.9 2.2.57.47 1.23.7 1.95.7.6 0 1.1-.1 1.6-.24.44-.16.84-.37 1.2-.63.33-.26.62-.56.85-.9.22-.32.4-.67.52-1.02.1-.4.15-.6.15-.8V14zm4.2-6.6l3.7 9.2c.2.5.37 1.06.56 1.6.2.54.34 1.03.5 1.5h.04l.48-1.47.6-1.7 3.46-9.1h1.5l-4.2 10.37-1.2 3c-.35.87-.73 1.7-1.1 2.4-.4.7-.78 1.34-1.18 1.9-.4.54-.84 1.03-1.3 1.44-.6.5-1.1.87-1.58 1.1-.47.2-.8.35-.95.4l-.5-1.14c.36-.16.77-.36 1.2-.62.46-.25.9-.6 1.3-1 .38-.35.77-.82 1.2-1.4.44-.58.83-1.28 1.17-2.1.12-.32.18-.52.18-.62 0-.12-.06-.33-.18-.6l-5.2-13.1h1.5z"></path>
</svg>