<svg xmlns="http://www.w3.org/2000/svg" width="39" height="13">
  <path fill="currentColor" d="M14.835 10.173l1.567-1.68v3.416l-1.567-1.736zM9.849 8.915v.776h2.24v.87h-2.24v.848h2.507l1.166-1.252-1.116-1.24H9.848v-.002h.001zm27.743.64c.348.36.509.802.509 1.396 0 1.281-.862 2.047-2.307 2.047h-1.987a.702.702 0 0 1-.647-.427c-.386.273-.901.427-1.534.427H29.64a.69.69 0 0 1-.306-.076.699.699 0 0 1-.306.076h-3.405a.7.7 0 0 1-.311-.079.673.673 0 0 1-.312.08h-1.024a.705.705 0 0 1-.705-.703v-.62a2.95 2.95 0 0 0-.002-.228 3.051 3.051 0 0 0-.207-.006h-.384v.854a.704.704 0 0 1-.706.702h-1.025a.704.704 0 0 1-.706-.702v-1.084c-.362.216-.861.357-1.55.357h-.568v.727a.704.704 0 0 1-.705.702h-1.983a.704.704 0 0 1-.528-.235l-.739-.83-.778.84a.703.703 0 0 1-.517.227H8.83a.704.704 0 0 1-.704-.704v-4.26c0-.389.315-.704.704-.704h4.103a.69.69 0 0 1 .524.234l.741.822.773-.832a.704.704 0 0 1 .518-.223h3.26c.713 0 1.214.158 1.573.39a.699.699 0 0 1 .623-.39h2.357c.54 0 1.066.02 1.56.283.05.03.086.07.135.104a.7.7 0 0 1 .623-.387h3.404c.264 0 .484.149.607.367.337-.228.78-.367 1.342-.367h2.044c.308 0 .56.196.657.47.35-.283.83-.47 1.468-.47h2.044c.39 0 .706.314.706.704v.907a.704.704 0 0 1-.323.59.264.264 0 0 1 .023.021zM20.467 9.44c0-1.18-.91-1.405-1.72-1.405h-3.26L14.19 9.43l-1.257-1.397H8.83v4.26h4.042l1.306-1.41 1.257 1.41h1.982v-1.43h1.273c.892.003 1.777-.243 1.777-1.425zm3.865.877c.267-.107.723-.454.723-1.135 0-.485-.203-.751-.524-.945-.337-.179-.712-.2-1.228-.2h-2.356v4.26h1.025V10.74h1.09c.373 0 .6.036.746.187.191.199.167.579.167.835v.533h1.023v-.845c-.004-.375-.024-.569-.17-.777a1.083 1.083 0 0 0-.496-.358zm4.693-2.28h-3.404v4.26h3.404v-.883l-2.389-.005v-.846h2.33v-.87h-2.33v-.776h2.39v-.88zm4.2 2.914c0-.438-.107-.698-.307-.904-.23-.232-.61-.327-1.164-.342l-.548-.016c-.174 0-.288-.011-.397-.049a.328.328 0 0 1-.223-.317c0-.135.042-.238.154-.307.102-.07.222-.078.41-.078h1.87V8.03h-2.044c-1.07 0-1.458.649-1.458 1.269 0 1.347 1.195 1.286 2.148 1.317.179 0 .284.03.364.095a.36.36 0 0 1 .124.28c0 .117-.05.214-.12.28-.086.081-.223.105-.416.105H29.64v.915h1.987c1.025.005 1.597-.423 1.597-1.341zm4.17 0c0-.438-.108-.698-.307-.904-.23-.232-.611-.327-1.165-.342l-.548-.016c-.174 0-.288-.011-.398-.049a.33.33 0 0 1-.222-.317c0-.135.042-.238.154-.307.1-.07.222-.078.41-.078h1.87V8.03h-2.044c-1.07 0-1.459.649-1.459 1.269 0 1.347 1.195 1.286 2.149 1.317.18 0 .284.03.363.095a.36.36 0 0 1 .124.28.38.38 0 0 1-.119.28c-.085.081-.223.105-.415.105h-1.98v.915h1.988c1.025.005 1.598-.423 1.598-1.341zM18.747 8.915h-1.33V10h1.317c.393 0 .637-.193.637-.56-.001-.375-.255-.525-.624-.525zm.6-6.466c.131-.07.21-.22.21-.405 0-.183-.082-.314-.214-.376-.121-.069-.307-.077-.484-.077h-1.256v.945h1.24c.196 0 .361-.003.504-.087zm4.367 6.545c-.124-.074-.307-.077-.486-.077h-1.257v.956h1.24c.199 0 .368-.006.506-.086a.46.46 0 0 0 .21-.41c-.002-.183-.08-.315-.213-.383zm3.769-7.567l-.7 1.698h1.408l-.708-1.698zM2.572 3.125h1.391l-.698-1.698-.693 1.698zm5.71 2.542a.706.706 0 0 1-.644-.419l-.134-.302v.017a.704.704 0 0 1-.704.703H4.725a.704.704 0 0 1-.653-.436l-.212-.514H2.678l-.216.517a.704.704 0 0 1-.649.434H.705a.703.703 0 0 1-.647-.98L1.882.426A.706.706 0 0 1 2.532 0h1.514c.282 0 .537.167.648.425l.383.891V.704c0-.388.315-.703.705-.703h1.665c.274 0 .524.16.64.409l.668 1.446L9.36.43c.11-.26.366-.43.647-.43h1.7c.144 0 .269.054.381.127a.687.687 0 0 1 .38-.126h3.408a.68.68 0 0 1 .353.109.69.69 0 0 1 .354-.11h2.346c.607 0 1.11.022 1.59.298.049.029.082.067.126.099A.702.702 0 0 1 21.273 0h1.042c.352 0 .631.262.684.597C23.455.202 24.076 0 24.914 0h.985a.7.7 0 0 1 .423.14.7.7 0 0 1 .42-.14h1.53c.28 0 .535.168.646.426l.375.875V.704c0-.388.315-.703.704-.703h1.555a.71.71 0 0 1 .603.34l.485.802v-.44c0-.388.315-.703.705-.703h1.044c.389 0 .705.315.705.703v4.26a.704.704 0 0 1-.705.704h-1.444a.707.707 0 0 1-.604-.34l-.626-1.036v.672a.704.704 0 0 1-.705.704h-2.076a.705.705 0 0 1-.65-.433l-.216-.518h-1.176l-.207.51a.703.703 0 0 1-.65.441h-1.196c-.453 0-1.268-.081-1.846-.566a.695.695 0 0 1-.678.566h-1.042a.695.695 0 0 1-.32-.085.689.689 0 0 1-.315.085h-1.03a.705.705 0 0 1-.705-.697l-.004-.538.002-.093c0-.058.001-.143-.003-.215a2.947 2.947 0 0 0-.198-.006h-.39v.846a.704.704 0 0 1-.705.703h-1.021a.688.688 0 0 1-.354-.108.68.68 0 0 1-.353.108h-3.408a.693.693 0 0 1-.38-.126.698.698 0 0 1-.38.126h-1.046a.703.703 0 0 1-.705-.702v-.018l-.135.302a.703.703 0 0 1-.644.42l-.897-.002zm14.531-2.802c0 .774.186 1.265.548 1.627.354.361.98.47 1.476.47h1.195l.383-.95h2.12l.398.95h2.076V1.766l1.935 3.198h1.445V.703h-1.044v2.966L31.552.702h-1.555v4.03L28.271.702h-1.528L25.3 4.052h-.457c-.266 0-.553-.05-.711-.22-.191-.215-.282-.544-.282-1 0-.446.119-.785.293-.964.202-.198.413-.253.784-.253h.967V.702h-.986c-.704 0-1.22.157-1.55.497-.433.457-.546 1.035-.546 1.666zm2.12-.546c-.239 0-.263.024-.293.053-.01.013-.08.166-.08.462 0 .292.046.432.08.496a.82.82 0 0 0 .2.02l.444-1.03-.35-.001zm-3.66 2.644h1.042V.703h-1.042v4.26zm-4.69 0h1.021v-1.55h1.094c.367 0 .595.033.744.182.185.205.16.574.16.83l.005.537h1.03v-.836c0-.38-.025-.57-.17-.781a1.193 1.193 0 0 0-.505-.359 1.2 1.2 0 0 0 .718-1.135c0-.475-.193-.753-.516-.944-.33-.19-.714-.204-1.235-.204h-2.347v4.26h.001zm-4.115 0h3.408V4.08h-2.388v-.85h2.331v-.874h-2.33V1.59h2.387V.702h-3.408v4.26zm-4.186 0h.897l1.48-3.337.003 3.337h1.046V.703h-1.7l-1.226 2.89L7.446.703H5.781v4.033L4.044.702H2.53L.703 4.962h1.109l.396-.95h2.124l.392.95H6.8V1.624l1.481 3.34z"></path>
</svg>