<svg xmlns="http://www.w3.org/2000/svg" width="28" height="13" viewBox="0 0 28 13">
    <path fill="currentColor" fill-rule="nonzero" d="M20.163 3.978h-2.075V.11h2.075v.655H18.82v.859h1.294v.655H18.82v1.044h1.343v.655zm1.218 0h-.732V.11h1.086c.843 0 1.327.418 1.327 1.142 0 .593-.304.98-.854 1.097l1.18 1.629h-.9l-1.013-1.554h-.094v1.554zm0-2.088h.212c.468 0 .716-.208.716-.597 0-.376-.247-.573-.703-.573h-.225v1.17zm-5.244 2.187L17.757.11h-.792l-1.014 2.597-1-2.597h-.799l1.592 3.966h.393zM23.344.5h-.08V.16h.107c.08 0 .125.037.125.105a.093.093 0 0 1-.072.095l.108.14h-.096l-.093-.132V.5zm0-.189h.012c.039 0 .06-.014.06-.044s-.02-.044-.059-.044h-.013V.31zM3.424 3.978h.731V.11h-.73v3.868zm-.337-1.93c0 .568-.253 1.118-.68 1.483-.361.308-.771.447-1.338.447H0V.111h1.073C2.259.11 3.087.906 3.087 2.047zm-.754-.007c0-.371-.152-.73-.405-.963-.242-.225-.529-.313-1-.313H.73v2.558h.197c.472 0 .77-.094 1-.307.254-.233.405-.603.405-.975zm10.052 2.073c.895 0 1.655-.608 1.905-1.445.012-.036.019-.072.03-.107l.02-.09c.028-.134.04-.273.04-.416C14.38.921 13.489 0 12.386 0c-.826 0-1.536.518-1.838 1.257a2.094 2.094 0 0 0-.157.8c0 1.136.893 2.057 1.995 2.057zm-3.152-.05c.316 0 .586-.063.918-.225V2.95c-.293.302-.552.425-.883.425-.737 0-1.26-.551-1.26-1.334 0-.742.54-1.329 1.226-1.329.35 0 .614.13.917.436V.26a1.82 1.82 0 0 0-.9-.238c-1.108 0-1.997.9-1.997 2.024 0 1.136.865 2.017 1.98 2.017zM23.1.329a.29.29 0 0 1 .289-.296c.154 0 .283.134.283.296a.292.292 0 0 1-.283.297.291.291 0 0 1-.289-.297zm.058.001c0 .134.104.243.228.243.126 0 .228-.11.228-.243s-.103-.243-.228-.243-.228.108-.228.243zM27.072 13V5.593S20.04 10.71 7.159 13h19.913V13zM5.945 1.594c-.44-.167-.569-.279-.569-.487 0-.244.23-.429.546-.429.219 0 .4.093.59.314l.383-.518A1.617 1.617 0 0 0 5.792.046c-.664 0-1.169.475-1.169 1.108 0 .532.235.805.922 1.06.287.104.433.174.506.22.147.098.22.238.22.4 0 .314-.242.547-.568.547-.348 0-.63-.18-.798-.517l-.474.47c.338.51.742.737 1.298.737.762 0 1.295-.522 1.295-1.27 0-.615-.248-.894-1.079-1.207z"></path>
</svg>