<svg xmlns="http://www.w3.org/2000/svg" width="24" height="14">
  <path fill="currentColor" fill-rule="evenodd" d="M11.53 1.518C9.891 2.8 8.84 4.778 8.84 7s1.051 4.2 2.69 5.482c1.64-1.283 2.69-3.26 2.69-5.482 0-2.22-1.05-4.198-2.69-5.48zM7.934 7c0-2.326 1.026-4.498 2.821-6.002A7.141 7.141 0 0 0 7.112 0C3.184 0 0 3.134 0 7c0 3.865 3.184 6.999 7.11 6.999a7.144 7.144 0 0 0 3.644-.997c-1.795-1.504-2.82-3.676-2.82-6.003zM12.307.997a7.795 7.795 0 0 1 0 12.006 7.156 7.156 0 0 0 3.644.997c3.926 0 7.11-3.134 7.11-7s-3.184-7-7.11-7a7.14 7.14 0 0 0-3.644.997z"></path>
</svg>