<svg width="64" height="18" viewBox="120 5 64 18" xmlns="http://www.w3.org/2000/svg">
  <path fill="currentColor" fill-rule="evenodd" d="M180.43 6l-2.02 12.83c0 .24.2.47.4.47h2.1c.34 0 .6-.25.68-.58l2-12.6c.02-.25-.17-.47-.42-.47h-2.26c-.2 0-.38.14-.4.34m-25.3 4.2h-2.38c-.23 0-.44.1-.56.3L149 15.3l-1.4-4.65c-.1-.3-.34-.5-.64-.5h-2.32c-.28 0-.48.3-.4.55l2.62 7.66-2.45 3.46c-.2.27 0 .64.36.64h2.36c.2 0 .43-.1.56-.3l7.87-11.34c.2-.28 0-.65-.34-.65m19.2 4.57c-.2 1.35-1.3 2.25-2.65 2.25-.7 0-1.23-.26-1.58-.67-.35-.44-.48-1-.37-1.68.2-1.34 1.3-2.27 2.63-2.27.68 0 1.23.22 1.58.64.38.43.5 1.02.4 1.67m3.3-4.58h-2.35c-.2 0-.36.13-.4.33l-.1.65-.16-.24c-.5-.74-1.67-1-2.8-1-2.6 0-4.8 1.98-5.26 4.75-.23 1.4.1 2.7.87 3.64.7.84 1.73 1.2 2.95 1.2 2.1 0 3.26-1.35 3.26-1.35l-.1.62c-.04.26.15.5.4.5h2.1c.36 0 .64-.25.7-.58l1.27-8.05c.03-.27-.17-.5-.4-.5m-38.34 4.57c-.23 1.36-1.3 2.26-2.65 2.26-.7 0-1.22-.2-1.57-.62-.36-.43-.5-1-.4-1.67.2-1.33 1.3-2.26 2.65-2.26.67 0 1.22.2 1.57.63.4.42.5 1 .4 1.66m3.3-4.58h-2.33c-.2 0-.38.12-.4.32l-.1.66-.18-.24c-.5-.75-1.65-1-2.78-1-2.6 0-4.82 1.97-5.26 4.74-.22 1.4.1 2.7.88 3.62.73.83 1.75 1.2 2.97 1.2 2.1 0 3.28-1.36 3.28-1.36l-.1.65c-.03.24.16.47.4.47h2.13c.32 0 .6-.24.65-.57l1.28-8.05c.05-.25-.15-.48-.4-.48m-14.12.05c-.3 1.84-1.62 1.84-2.92 1.84h-.74l.52-3.28c.03-.2.2-.36.4-.36h.34c.9 0 1.72 0 2.15.5.25.3.33.76.23 1.38m-.6-4.6H123c-.34 0-.62.24-.68.57l-1.98 12.6c-.04.24.15.47.4.47h2.35c.3 0 .6-.25.6-.58l.54-3.4c.04-.34.33-.58.66-.58h1.57c3.23 0 5.1-1.57 5.6-4.68.2-1.35 0-2.42-.64-3.17-.7-.82-1.95-1.25-3.6-1.25m35.63 4.6C163.2 12 161.9 12 160.56 12h-.72l.52-3.25c.02-.2.2-.35.4-.35h.34c.9 0 1.73 0 2.16.5.24.3.32.75.22 1.37m-.58-4.6H158c-.35 0-.63.24-.68.57l-2 12.6c-.03.25.16.48.4.48h2.53c.25 0 .45-.16.5-.4l.55-3.57c.05-.33.34-.57.67-.57h1.55c3.24 0 5.1-1.57 5.6-4.68.2-1.35 0-2.42-.63-3.17-.7-.8-1.98-1.24-3.6-1.24"></path>
</svg>