<svg xmlns="http://www.w3.org/2000/svg" width="31" height="10">
  <path fill="currentColor" d="M28.101.177h-1.889c-.586 0-1.023.172-1.28.804l-3.63 8.878h2.567s.418-1.193.513-1.455l3.131.004c.073.338.298 1.451.298 1.451h2.269L28.1.177zm-3.015 6.245l.974-2.708c-.013.027.2-.56.326-.925l.165.835.566 2.798h-2.031zm-3.614.267C21.455 8.702 19.784 10 17.214 10c-1.096-.012-2.152-.245-2.724-.516l.344-2.169.315.155c.803.362 1.323.508 2.302.508.703 0 1.455-.298 1.462-.946.005-.425-.315-.727-1.267-1.202-.928-.464-2.157-1.241-2.142-2.633C15.518 1.314 17.221 0 19.637 0c.947 0 1.706.21 2.19.407l-.331 2.1-.22-.112a4.225 4.225 0 0 0-1.83-.371c-.958 0-1.402.43-1.402.833-.005.454.519.753 1.374 1.202 1.413.69 2.065 1.53 2.054 2.63zM0 .277L.031.083h3.791c.511.02.923.197 1.065.787l.825 4.281C4.902 2.912 2.95 1.05 0 .277zM11.056.175l-3.85 9.67-2.588.005-2.19-8.08c1.575 1.088 2.915 2.815 3.387 4.017l.256.997L8.465.177l2.59-.002zm.988-.008h2.446l-1.53 9.688h-2.445L12.044.167z"></path>
</svg>