<svg viewBox="0 0 512 512" xmlns="http://www.w3.org/2000/svg" fill-rule="evenodd" clip-rule="evenodd" stroke-linejoin="round" stroke-miterlimit="2">
  <path fill="none" d="M0 0h512v512H0z"/>
  <path d="M717.488 1131.67L566.491 980.669c-3.431-3.43-3.431-8.993 0-12.424l150.997-150.996c3.43-3.431 8.992-3.431 12.423 0l150.997 150.996c3.431 3.431 3.431 8.994 0 12.424L729.911 1131.67c-3.431 3.43-8.993 3.43-12.423 0z" fill="url(#_Linear1)" transform="translate(-613.6256 -914.948) scale(1.20164)"/>
  <path d="M75.922296 255.893967l180.078972 180.07777 180.076569-179.868685L256.104609 75.92074 75.922296 255.893967zm180.078972 182.228706c-.228312 0-.456623-.084115-.630861-.252345l-181.340694-181.3455c-.167028-.167028-.260756-.392936-.260756-.630861 0-.236723.093728-.462632.260756-.630861L255.47495 74.028156c.348475-.348476.912044-.348476 1.26052 0l181.23495 181.445237c.348475.348475.348475.913246 0 1.261722L256.630927 437.870328c-.174237.16823-.402549.252345-.629659.252345z" fill="#fff" fill-rule="nonzero"/>
  <path d="M212.712187 282.890011l-10.457873 4.006268c-1.491235-4.748881-4.218958-7.125725-8.181967-7.125725-1.856533 0-3.324938.526318-4.406414 1.58256-1.081476 1.052636-1.624617 2.281914-1.624617 3.686631 0 1.631827.640474 2.925993 1.91902 3.899322 1.279746.973328 3.957 2.247067 8.034164 3.821215 3.710665 1.36987 6.627045 2.73974 8.751544 4.085576 2.122097 1.357853 3.836837 3.184346 5.14302 5.503511 1.308586 2.319165 1.962278 5.010839 1.962278 8.075021 0 5.37133-1.849324 9.78135-5.545569 13.230056-3.698648 3.43669-8.65301 5.155036-14.865488 5.155036-10.430236 0-17.094531-5.263183-19.98808-15.813582l11.047878-3.160314c1.350643 5.791905 4.426842 8.687858 9.235805 8.687858 2.191791 0 3.970219-.564771 5.332878-1.70633 1.363862-1.141557 2.046393-2.63159 2.046393-4.494133 0-1.405919-.478252-2.655624-1.434758-3.77315-.955304-1.105508-3.148297-2.283115-6.576576-3.520805-4.416027-1.574148-7.704915-3.0041-9.869069-4.277838-2.165355-1.285755-3.94979-3.112248-5.35571-5.479478-1.405918-2.379248-2.108878-5.082938-2.108878-8.123087 0-5.171858 1.666675-9.408841 4.997621-12.71215 3.330946-3.303308 7.73736-4.955563 13.220444-4.955563 10.00846 0 16.249777 4.471303 18.723954 13.409101zM243.776984 306.170584l-5.817139-23.584588-5.581618 23.584588h11.398757zm-10.992602-35.805267h12.736182l16.446847 57.566968h-12.93926l-2.870718-11.896236h-16.21493l-2.822652 11.896236h-11.623464l17.287995-57.566968zM266.77397 270.365317h12.650867v46.764224h18.555724v10.802744h-31.20659v-57.566968zM303.54776 270.365317h35.00137v9.86907h-22.350505v13.367043h17.374513v9.865464h-17.374513v14.167336h22.350504v10.298055h-35.00137v-57.566968zM188.96778 176.02336h13.17358v24.196222h14.404059V176.02336h13.173579v59.941408h-13.17358v-24.50264H202.14136v24.50264h-13.17358V176.02336zM268.537978 205.973035c0-8.08103-.63086-13.461973-1.888978-16.136824-1.259319-2.680859-3.264856-4.021889-6.01541-4.021889-2.724118 0-4.712832 1.34824-5.973352 4.042317-1.258117 2.694077-1.886575 8.063004-1.886575 16.116396 0 7.904388.620046 13.245677 1.866147 16.02507 1.243697 2.785402 3.242025 4.1757 5.99378 4.1757 2.722916 0 4.720042-1.33382 5.99378-3.996655 1.272537-2.66644 1.910608-8.06781 1.910608-16.204115zm13.875337 0c0 20.608126-7.245889 30.912189-21.736466 30.912189-7.201428 0-12.63164-2.627987-16.290633-7.882759-3.660196-5.254771-5.490293-12.930848-5.490293-23.02943 0-20.580489 7.245889-30.870132 21.737667-30.870132 7.08487 0 12.48504 2.575115 16.202914 7.728949 3.719076 5.150229 5.576811 12.865959 5.576811 23.141183zM285.663751 176.02336h37.368601v11.24014h-12.249518v48.701267h-13.175983V187.2635h-11.9431v-11.24014z" fill="#fff" fill-rule="nonzero"/>
  <defs>
    <linearGradient id="_Linear1" x2="1" gradientUnits="userSpaceOnUse" gradientTransform="rotate(45 -741.010914 1183.577928) scale(366.843)">
      <stop offset="0" stop-color="#820000"/>
      <stop offset=".1" stop-color="#c00"/>
      <stop offset=".2" stop-color="#f00000"/>
      <stop offset=".5" stop-color="#e00000"/>
      <stop offset=".7" stop-color="#ad0000"/>
      <stop offset=".8" stop-color="#a50000"/>
      <stop offset="1" stop-color="#f70000"/>
    </linearGradient>
  </defs>
</svg>
