<svg viewBox="0 0 512 512" xmlns="http://www.w3.org/2000/svg" fill-rule="evenodd" clip-rule="evenodd" stroke-linejoin="round" stroke-miterlimit="2">
  <path fill="none" d="M0 0h512v512H0z"/>
  <path d="M1861.48 658.164V528.761c0-5.77-3.07-11.102-8.07-13.987l-112.07-64.701c-4.99-2.885-11.15-2.885-16.15 0l-112.06 64.701c-5 2.885-8.08 8.217-8.08 13.987v129.403c0 5.77 3.08 11.101 8.08 13.987l112.06 64.701c5 2.885 11.16 2.885 16.15 0l112.07-64.701c5-2.886 8.07-8.217 8.07-13.987z" fill="url(#_Linear1)" transform="translate(-2030.358 -526.839) scale(1.3191)"/>
  <path d="M255.998457 76.729715c-1.503774 0-2.994357.398368-4.287075 1.147617l-147.831537 85.34577c-2.6382 1.530156-4.287075 4.375455-4.287075 7.426533v170.695497c0 3.051079 1.648875 5.895058 4.287075 7.425214l147.831537 85.34709c2.598627 1.499816 5.975523 1.499816 8.57415 0l147.818346-85.34709c2.651391-1.526198 4.287075-4.370178 4.287075-7.425214V170.649635c0-3.055036-1.635684-5.900334-4.287075-7.423895L260.285532 77.877332c-1.305909-.749249-2.783301-1.147617-4.287075-1.147617zm0 360.4942c-1.84674 0-3.667098-.488066-5.2764-1.411436l-147.818346-85.34709c-3.244986-1.877079-5.263209-5.371374-5.263209-9.120257V170.649635c0-3.747563 2.018223-7.244497 5.263209-9.121576l147.818346-85.344451c3.205413-1.84806 7.347387-1.84806 10.539609 0l147.818346 85.34445c3.258177 1.873123 5.2764 5.367418 5.2764 9.121577v170.695497c0 3.75284-2.018223 7.247136-5.2764 9.121577l-147.818346 85.34577c-1.596111.92337-3.416469 1.411437-5.263209 1.411437z" fill="#fff" fill-rule="nonzero"/>
  <path d="M210.740136 296.656663l-10.922148 4.189461c-1.569729-4.96773-4.418985-7.450277-8.560959-7.450277-1.939077 0-3.469233.551384-4.603659 1.652833-1.134426 1.101448-1.701639 2.38889-1.701639 3.857048 0 1.704277.672741 3.06427 2.005032 4.077338 1.345482 1.014388 4.141974 2.34536 8.402667 3.990278 3.878154 1.440457 6.925275 2.865085 9.141363 4.276522 2.229279 1.410118 4.010064 3.32809 5.381928 5.753914 1.371864 2.423187 2.044605 5.238146 2.044605 8.44224 0 5.61277-1.925886 10.219068-5.790849 13.818892-3.864963 3.601143-9.049026 5.400395-15.538998 5.400395-10.908957 0-17.873805-5.50988-20.894544-16.530961l11.542125-3.306984c1.424628 6.055988 4.630041 9.082004 9.655812 9.082004 2.295234 0 4.155165-.594914 5.579793-1.784743 1.424628-1.191147 2.136942-2.7556 2.136942-4.695996 0-1.468158-.501258-2.78462-1.490583-3.945428-1.002516-1.160808-3.29775-2.386252-6.885702-3.681608-4.61685-1.644917-8.04651-3.13682-10.315362-4.473068-2.268852-1.337567-4.128783-3.248943-5.592984-5.732809-1.477392-2.482546-2.202897-5.310696-2.202897-8.487089 0-5.405672 1.741212-9.836529 5.223636-13.289932 3.482424-3.453404 8.086083-5.180106 13.810977-5.180106 10.473654 0 16.990008 4.672252 19.575444 14.018076zM243.216378 320.992738l-6.081051-24.653979-5.830422 24.65398h11.911473zm-11.489361-37.428143h13.309719l17.201064 60.176023h-13.533966l-2.994357-12.432518h-16.950435l-2.954784 12.432518h-12.148911l18.07167-60.176023zM267.263571 283.564595h13.217382v48.889803h19.403961v11.28622h-32.621343v-60.176023zM305.702145 283.564595h36.591834v10.315362h-23.374452v13.975865h18.164007v10.314042h-18.164007v14.813493h23.374452v10.757261h-36.591834v-60.176023zM151.987422 178.668444h19.562253l8.57415 37.47827 9.655812-37.47827h18.981849v60.685195h-12.491877V188.53795l-12.412731 50.81569h-9.682194l-11.34426-50.81569v50.81569h-10.843002v-60.685196zM220.224465 178.668444h36.908418v10.402423h-23.572317v14.094583h18.322299v10.402423h-18.322299v14.937488h23.572317v10.848278h-36.908418v-60.685195zM284.952702 206.988202h21.079218v32.365437h-5.645748l-1.728021-6.934508c-3.258177 5.24606-8.152038 7.868431-14.681583 7.868431-6.898893 0-12.373158-2.718665-16.422795-8.157314-4.049637-5.439969-6.06786-12.75174-6.06786-21.939271 0-9.988226 1.991841-17.89491 5.975523-23.718737 3.983682-5.823827 9.880059-8.737719 17.67594-8.737719 12.412731 0 19.377579 6.935828 20.894544 20.806164l-12.00381 1.956226c-.831033-7.94362-3.706671-11.914111-8.626914-11.914111-2.994357 0-5.381928 1.466839-7.175904 4.401836-1.793976 2.933679-2.690964 8.492366-2.690964 16.672105 0 7.260327.870606 12.374477 2.625009 15.337176 1.741212 2.964018 4.313457 4.445367 7.690353 4.445367 5.421501 0 8.152038-4.01534 8.17842-12.04734h-9.075408v-10.403742zM340.829778 216.41449l-6.133815-24.862396-5.883186 24.862396h12.017001zm-11.594889-37.746046h13.428438l17.346165 60.685195h-13.639494l-3.03393-12.536726h-17.095536l-2.967975 12.536726h-12.254439l18.216771-60.685195z" fill="#fff" fill-rule="nonzero"/>
  <defs>
    <linearGradient id="_Linear1" x2="1" gradientUnits="userSpaceOnUse" gradientTransform="scale(416.178) rotate(55.654 .916498 4.30773)">
      <stop offset="0" stop-color="#820000"/>
      <stop offset=".1" stop-color="#c00"/>
      <stop offset=".2" stop-color="#f00000"/>
      <stop offset=".5" stop-color="#e00000"/>
      <stop offset=".7" stop-color="#ad0000"/>
      <stop offset=".8" stop-color="#a50000"/>
      <stop offset="1" stop-color="#f70000"/>
    </linearGradient>
  </defs>
</svg>
