<svg viewBox="0 0 512 512" xmlns="http://www.w3.org/2000/svg" fill-rule="evenodd" clip-rule="evenodd" stroke-linejoin="round" stroke-miterlimit="2">
  <path fill="none" d="M0 0h512v512H0z"/>
  <path d="M758.146 351.047L654.091 272.19l-104.056 78.857V69.193h208.111v281.854z" fill="url(#_Linear1)" transform="translate(-932.184 -125.692) scale(1.81654)"/>
  <path d="M256.000282 347.098866c.287013 0 .574026.092643.81381.274297l170.673015 129.344915V17.529463h-342.9791v459.188615l170.676648-129.344915c.2416-.181654.526797-.274297.815627-.274297zM428.836797 480.77986c-.290647 0-.57766-.092644-.81381-.274298L256.000282 350.137937 83.973944 480.505563c-.405089.308812-.9555.35241-1.413268.134424-.459585-.228884-.750231-.697551-.750231-1.209815V16.18159c0-.746598.604907-1.34969 1.349689-1.34969h345.676663c.74478 0 1.347872.603092 1.347872 1.34969v463.24858c0 .512265-.28883.980932-.748414 1.209816-.18892.092644-.39419.139874-.599458.139874z" fill="#fff" fill-rule="nonzero"/>
  <path d="M199.366014 239.548799l-13.68218 5.2389c-1.949147-6.214382-5.516831-9.322482-10.701236-9.322482-2.428714 0-4.35243.688468-5.765698 2.067222-1.418718 1.38057-2.123536 2.990025-2.123536 4.828363 0 2.134435.835609 3.834716 2.510459 5.102661 1.671217 1.269762 5.175322 2.933712 10.508684 4.993669 4.855611 1.802007 8.672162 3.584033 11.446018 5.351527 2.77749 1.765677 5.020917 4.16351 6.733914 7.198948 1.709364 3.033621 2.564954 6.55771 2.564954 10.564996 0 7.026377-2.41963 12.792075-7.25526 17.297094-4.837446 4.506836-11.318861 6.757529-19.447878 6.757529-13.645848 0-22.363423-6.895586-26.15091-20.688574l14.45421-4.138078c1.765676 7.576788 5.791129 11.364274 12.081807 11.364274 2.868317 0 5.193488-.744781 6.980963-2.232528 1.782026-1.491379 2.675764-3.447793 2.675764-5.876507 0-1.838338-.626707-3.484123-1.876486-4.939172-1.24978-1.451415-4.119913-2.986392-8.606767-4.604929-5.772964-2.059956-10.078164-3.925543-12.91015-5.600393-2.833802-1.673033-5.16624-4.0636-7.004578-7.1717-1.841971-3.109916-2.76114-6.648536-2.76114-10.621309 0-6.764795 2.181664-12.310691 6.537727-16.63224 4.35788-4.323365 10.125394-6.481415 17.297094-6.481415 13.091804 0 21.258967 5.845626 24.494225 17.544144zM240.007464 270.001275l-7.611303-30.853932-7.30249 30.853932h14.913793zm-14.381548-46.837667h16.663122l21.5151 75.304665h-16.92652l-3.756605-15.558665H221.90746l-3.693026 15.558665H203.00636l22.619556-75.304665zM270.094816 223.163608h16.552312v61.181067h24.274424v14.123598h-40.826736v-75.304665zM318.202244 223.163608h45.79134v12.908333h-29.239027v17.489647h22.730365v12.908333h-22.730365v18.537791h29.239028v13.460561h-45.79134v-75.304665zM166.625734 90.371505h17.564809v32.261698h19.205451V90.371505h17.56481v79.922044h-17.56481v-32.670256h-19.205451v32.670256h-17.56481V90.371505zM272.719551 130.304489c0-10.774728-.84115-17.949335-2.518642-21.51581-1.679096-3.574485-4.35315-5.36253-8.020564-5.36253-3.632164 0-6.283789 1.797658-7.964486 5.389768-1.677493 3.59211-2.515438 10.750695-2.515438 21.488572 0 10.539206.82673 17.66094 2.4882 21.366806 1.658267 3.713876 4.32271 5.56761 7.991724 5.56761 3.630563 0 6.293403-1.77843 7.991724-5.328884 1.69672-3.55526 2.547482-10.757104 2.547482-21.605532zm18.500488 0c0 27.477558-9.661206 41.216338-28.982015 41.216338-9.601924 0-16.842221-3.50399-21.72089-10.510367-4.88027-7.006377-7.320406-17.241166-7.320406-30.705971 0-27.440708 9.661206-41.160261 28.983617-41.160261 9.446513 0 16.646755 3.433493 21.60393 10.305286 4.958778 6.866986 7.435764 17.154648 7.435764 30.854975zM295.553963 90.371505h49.824905v14.986886h-16.332725v64.935158H311.47813v-64.935158h-15.924167V90.371505z" fill="#fff" fill-rule="nonzero"/>
  <defs>
    <linearGradient id="_Linear1" x2="1" gradientUnits="userSpaceOnUse" gradientTransform="scale(466.427) rotate(45 .360436 1.427813)">
      <stop offset="0" stop-color="#820000"/>
      <stop offset=".1" stop-color="#c00"/>
      <stop offset=".2" stop-color="#f00000"/>
      <stop offset=".5" stop-color="#e00000"/>
      <stop offset=".7" stop-color="#ad0000"/>
      <stop offset=".8" stop-color="#a50000"/>
      <stop offset="1" stop-color="#f70000"/>
    </linearGradient>
  </defs>
</svg>
