<svg height="24" width="24" viewBox="0 0 512 512" xmlns="http://www.w3.org/2000/svg" fill-rule="evenodd" clip-rule="evenodd" stroke-linejoin="round" stroke-miterlimit="2"><path d="M437 75A256.084 256.084 0 0 0 258.646 2.646c-140.438 0-256 115.562-256 256A256.084 256.084 0 0 0 75 437a256.084 256.084 0 0 0 178.354 72.354c140.438 0 256-115.562 256-256A256.084 256.084 0 0 0 437 75zM256 50c113.59 0 206 92.41 206 206a204.783 204.783 0 0 1-28 103.68C422.28 316.5 386.59 285 344.5 285h-1.31A105.507 105.507 0 0 0 359 229.449c0-57.876-47.624-105.5-105.5-105.5S148 171.573 148 229.449c0 19.625 5.476 38.867 15.81 55.551h-.31c-40.57 0-75.18 29.26-88.1 70A204.817 204.817 0 0 1 50 256c0-113.59 92.41-206 206-206zm-58 179.5c0-30.446 25.054-55.5 55.5-55.5s55.5 25.054 55.5 55.5-25.054 55.5-55.5 55.5c-30.432-.038-55.462-25.068-55.5-55.5zm-78 181.1v-20.25c0-30 19.92-55.35 43.5-55.35h181c23.58 0 43.5 25.35 43.5 55.35V414c-77.572 64.941-192.121 63.471-268-3.44v.04z" fill-rule="nonzero"/></svg>